<svg xmlns="http://www.w3.org/2000/svg" width="33.844" height="33.837" viewBox="0 0 33.844 33.837"><defs><style>.a{fill:#fff;}</style></defs><path class="a" d="M16.921,10.481A8.675,8.675,0,1,0,25.6,19.156,8.662,8.662,0,0,0,16.921,10.481Zm0,14.315a5.64,5.64,0,1,1,5.64-5.64,5.65,5.65,0,0,1-5.64,5.64Zm11.054-14.67A2.023,2.023,0,1,1,25.951,8.1,2.019,2.019,0,0,1,27.974,10.126ZM33.72,12.18a10.014,10.014,0,0,0-2.733-7.09A10.08,10.08,0,0,0,23.9,2.357C21.1,2.2,12.73,2.2,9.937,2.357a10.065,10.065,0,0,0-7.09,2.726C.861,7.06.25,9.461.114,12.172c-.159,2.794-.159,11.167,0,13.961a10.014,10.014,0,0,0,2.733,7.09,10.092,10.092,0,0,0,7.09,2.733c2.794.159,11.167.159,13.961,0a10.014,10.014,0,0,0,7.09-2.733,10.08,10.08,0,0,0,2.733-7.09c.159-2.794.159-11.159,0-13.953ZM30.111,29.13a5.71,5.71,0,0,1-3.216,3.216c-2.227.883-7.513.68-9.974.68s-7.754.2-9.974-.68A5.71,5.71,0,0,1,3.73,29.13c-.883-2.227-.68-7.513-.68-9.974s-.2-7.754.68-9.974A5.71,5.71,0,0,1,6.947,5.966c2.227-.883,7.513-.68,9.974-.68s7.754-.2,9.974.68a5.71,5.71,0,0,1,3.216,3.216c.883,2.227.68,7.513.68,9.974S30.995,26.91,30.111,29.13Z" transform="translate(0.005 -2.238)"/></svg>