<svg xmlns="http://www.w3.org/2000/svg" width="29.397" height="33.837" viewBox="0 0 29.397 33.837"><defs><style>.a{fill:#fff;}</style></defs><path class="a" d="M17.808.028C19.655,0,21.487.014,23.32,0a8.782,8.782,0,0,0,2.467,5.879A9.943,9.943,0,0,0,31.765,8.4v5.682a15.09,15.09,0,0,1-5.921-1.368,17.419,17.419,0,0,1-2.284-1.311c-.014,4.117.014,8.234-.028,12.336a10.768,10.768,0,0,1-1.9,5.555A10.5,10.5,0,0,1,13.3,33.822,10.28,10.28,0,0,1,7.544,32.37,10.632,10.632,0,0,1,2.4,24.32c-.028-.7-.042-1.41-.014-2.1A10.614,10.614,0,0,1,14.692,12.8c.028,2.087-.056,4.173-.056,6.26A4.837,4.837,0,0,0,8.46,22.05a5.593,5.593,0,0,0-.2,2.27A4.8,4.8,0,0,0,13.2,28.366,4.737,4.737,0,0,0,17.1,26.1a3.253,3.253,0,0,0,.578-1.494c.141-2.524.085-5.033.1-7.557.014-5.682-.014-11.349.028-17.017Z" transform="translate(-2.369)"/></svg>