<svg xmlns="http://www.w3.org/2000/svg" width="38.658" height="31.397" viewBox="0 0 38.658 31.397"><defs><style>.a{fill:#fff;}</style></defs><path class="a" d="M34.684,11.205c.025.343.025.687.025,1.03,0,10.474-7.972,22.542-22.542,22.542A22.389,22.389,0,0,1,0,31.221a16.39,16.39,0,0,0,1.913.1,15.867,15.867,0,0,0,9.836-3.385A7.937,7.937,0,0,1,4.342,22.44a9.992,9.992,0,0,0,1.5.123,8.38,8.38,0,0,0,2.085-.27A7.924,7.924,0,0,1,1.57,14.517v-.1a7.979,7.979,0,0,0,3.581,1.006A7.935,7.935,0,0,1,2.7,4.828a22.52,22.52,0,0,0,16.336,8.291,8.944,8.944,0,0,1-.2-1.815A7.93,7.93,0,0,1,32.55,5.883a15.6,15.6,0,0,0,5.028-1.913A7.9,7.9,0,0,1,34.1,8.336a15.883,15.883,0,0,0,4.562-1.226,17.031,17.031,0,0,1-3.974,4.1Z" transform="translate(0 -3.381)"/></svg>